<?xml version="1.0" encoding="utf-8"?>
<!-- Generator: Adobe Illustrator 25.0.0, SVG Export Plug-In . SVG Version: 6.00 Build 0)  -->
<svg version="1.1" id="Слой_1" xmlns="http://www.w3.org/2000/svg" xmlns:xlink="http://www.w3.org/1999/xlink" x="0px" y="0px"
	 viewBox="0 0 54 54" style="enable-background:new 0 0 54 54;" xml:space="preserve">
<style type="text/css">
	.st0{fill:none;stroke:#525252;stroke-width:1.5;stroke-miterlimit:10;}
	.st1{fill:#525252;}
</style>
<g id="XMLID_2104_">
	<path id="XMLID_2108_" class="st0" d="M27.42,45.54L27.42,45.54c-10.51,0-19.03-8.52-19.03-19.03v0C8.39,16,16.91,7.48,27.42,7.48
		h0c10.51,0,19.03,8.52,19.03,19.03v0C46.45,37.02,37.93,45.54,27.42,45.54z"/>
	<g id="XMLID_2105_">
		<path id="XMLID_2107_" class="st1" d="M29.8,26.02h-7.69l0.01,2.2h5.18c-0.61,2.68-2.51,4.33-5.05,4.33
			c-3.33,0-6.03-2.7-6.03-6.03c0-3.33,2.7-6.03,6.03-6.03c1.58,0,3.02,0.61,4.1,1.61l1.7-1.47c-1.49-1.47-3.54-2.38-5.8-2.38
			c-4.57,0-8.27,3.7-8.27,8.27c0,4.57,3.7,8.27,8.27,8.27c4.38,0,7.55-3.34,7.55-7.91L29.8,26.02z"/>
		<polygon id="XMLID_2106_" class="st1" points="40.85,26.11 37.68,26.11 37.68,22.94 35.65,22.94 35.65,26.11 32.48,26.11 
			32.48,28.13 35.65,28.13 35.65,31.31 37.68,31.31 37.68,28.13 40.85,28.13 		"/>
	</g>
</g>
</svg>
